<?xml version="1.0" encoding="UTF-8"?>
<!DOCTYPE svg PUBLIC "-//W3C//DTD SVG 1.1//EN"
    "http://www.w3.org/Graphics/SVG/1.1/DTD/svg11.dtd">
<svg xmlns="http://www.w3.org/2000/svg" xmlns:xlink="http://www.w3.org/1999/xlink" version="1.1" width="400.0" height="363.7715777781255" font-size="1" viewBox="0 0 400 364"><g><g fill="rgb(0,0,0)" fill-opacity="0.0"><g stroke="rgb(0,0,0)" stroke-opacity="1.0" stroke-width="1.0e-2" stroke-linecap="butt" stroke-linejoin="miter" font-size="1.0em" stroke-miterlimit="10.0"><g transform="matrix(27.05515692550142,0.0,0.0,27.05515692550142,-210.33654240313683,411.85458405311243)"><g><g fill="rgb(0,128,0)" fill-opacity="1.0"><g fill="rgb(0,128,0)" fill-opacity="1.0"><g fill="rgb(0,128,0)" fill-opacity="1.0"><path d="M 18.453501892089843,-15.022775650024414 c -2.2204460492503132e-17,-0.11045694996615865 -8.954305003384132e-2,-0.19999999999999996 -0.19999999999999996 -0.2c -0.11045694996615865,1.5441146354883215e-17 -0.19999999999999996,8.95430500338413e-2 -0.2 0.19999999999999996c 8.6778322172633e-18,0.11045694996615865 8.954305003384129e-2,0.19999999999999996 0.19999999999999993 0.2c 0.11045694996615865,-1.9145180796433852e-18 0.19999999999999996,-8.954305003384128e-2 0.20000000000000004 -0.19999999999999996Z" /></g></g></g><g fill="rgb(255,255,255)" fill-opacity="1.0"><g fill="rgb(255,255,255)" fill-opacity="1.0"><text transform="matrix(0.2,0.0,0.0,0.2,18.253501892089844,-15.022775650024414)" dominant-baseline="middle" text-anchor="middle" stroke="none">6</text></g></g></g><g><g fill="rgb(0,128,0)" fill-opacity="1.0"><g fill="rgb(0,128,0)" fill-opacity="1.0"><g fill="rgb(0,128,0)" fill-opacity="1.0"><path d="M 22.558972549438476,-9.08810806274414 c -2.2204460492503132e-17,-0.11045694996615865 -8.954305003384132e-2,-0.19999999999999996 -0.19999999999999996 -0.2c -0.11045694996615865,1.5441146354883215e-17 -0.19999999999999996,8.95430500338413e-2 -0.2 0.19999999999999996c 8.6778322172633e-18,0.11045694996615865 8.954305003384129e-2,0.19999999999999996 0.19999999999999993 0.2c 0.11045694996615865,-1.9145180796433852e-18 0.19999999999999996,-8.954305003384128e-2 0.20000000000000004 -0.19999999999999996Z" /></g></g></g><g fill="rgb(255,255,255)" fill-opacity="1.0"><g fill="rgb(255,255,255)" fill-opacity="1.0"><text transform="matrix(0.2,0.0,0.0,0.2,22.358972549438477,-9.08810806274414)" dominant-baseline="middle" text-anchor="middle" stroke="none">5</text></g></g></g><g><g fill="rgb(0,128,0)" fill-opacity="1.0"><g fill="rgb(0,128,0)" fill-opacity="1.0"><g fill="rgb(0,128,0)" fill-opacity="1.0"><path d="M 12.279830169677734,-1.9772214889526367 c -2.2204460492503132e-17,-0.11045694996615865 -8.954305003384132e-2,-0.19999999999999996 -0.19999999999999996 -0.2c -0.11045694996615865,1.5441146354883215e-17 -0.19999999999999996,8.95430500338413e-2 -0.2 0.19999999999999996c 8.6778322172633e-18,0.11045694996615865 8.954305003384129e-2,0.19999999999999996 0.19999999999999993 0.2c 0.11045694996615865,-1.9145180796433852e-18 0.19999999999999996,-8.954305003384128e-2 0.20000000000000004 -0.19999999999999996Z" /></g></g></g><g fill="rgb(255,255,255)" fill-opacity="1.0"><g fill="rgb(255,255,255)" fill-opacity="1.0"><text transform="matrix(0.2,0.0,0.0,0.2,12.079830169677734,-1.9772214889526367)" dominant-baseline="middle" text-anchor="middle" stroke="none">4</text></g></g></g><g><g fill="rgb(0,128,0)" fill-opacity="1.0"><g fill="rgb(0,128,0)" fill-opacity="1.0"><g fill="rgb(0,128,0)" fill-opacity="1.0"><path d="M 8.174360466003417,-7.911887168884277 c -2.2204460492503132e-17,-0.11045694996615865 -8.954305003384132e-2,-0.19999999999999996 -0.19999999999999996 -0.2c -0.11045694996615865,1.5441146354883215e-17 -0.19999999999999996,8.95430500338413e-2 -0.2 0.19999999999999996c 8.6778322172633e-18,0.11045694996615865 8.954305003384129e-2,0.19999999999999996 0.19999999999999993 0.2c 0.11045694996615865,-1.9145180796433852e-18 0.19999999999999996,-8.954305003384128e-2 0.20000000000000004 -0.19999999999999996Z" /></g></g></g><g fill="rgb(255,255,255)" fill-opacity="1.0"><g fill="rgb(255,255,255)" fill-opacity="1.0"><text transform="matrix(0.2,0.0,0.0,0.2,7.974360466003418,-7.911887168884277)" dominant-baseline="middle" text-anchor="middle" stroke="none">3</text></g></g></g><g><g fill="rgb(0,128,0)" fill-opacity="1.0"><g fill="rgb(0,128,0)" fill-opacity="1.0"><g fill="rgb(0,128,0)" fill-opacity="1.0"><path d="M 11.261192512512206,-14.434663772583008 c -2.2204460492503132e-17,-0.11045694996615865 -8.954305003384132e-2,-0.19999999999999996 -0.19999999999999996 -0.2c -0.11045694996615865,1.5441146354883215e-17 -0.19999999999999996,8.95430500338413e-2 -0.2 0.19999999999999996c 8.6778322172633e-18,0.11045694996615865 8.954305003384129e-2,0.19999999999999996 0.19999999999999993 0.2c 0.11045694996615865,-1.9145180796433852e-18 0.19999999999999996,-8.954305003384128e-2 0.20000000000000004 -0.19999999999999996Z" /></g></g></g><g fill="rgb(255,255,255)" fill-opacity="1.0"><g fill="rgb(255,255,255)" fill-opacity="1.0"><text transform="matrix(0.2,0.0,0.0,0.2,11.061192512512207,-14.434663772583008)" dominant-baseline="middle" text-anchor="middle" stroke="none">2</text></g></g></g><g><g fill="rgb(0,128,0)" fill-opacity="1.0"><g fill="rgb(0,128,0)" fill-opacity="1.0"><g fill="rgb(0,128,0)" fill-opacity="1.0"><path d="M 19.472138595581054,-2.5653324127197266 c -2.2204460492503132e-17,-0.11045694996615865 -8.954305003384132e-2,-0.19999999999999996 -0.19999999999999996 -0.2c -0.11045694996615865,1.5441146354883215e-17 -0.19999999999999996,8.95430500338413e-2 -0.2 0.19999999999999996c 8.6778322172633e-18,0.11045694996615865 8.954305003384129e-2,0.19999999999999996 0.19999999999999993 0.2c 0.11045694996615865,-1.9145180796433852e-18 0.19999999999999996,-8.954305003384128e-2 0.20000000000000004 -0.19999999999999996Z" /></g></g></g><g fill="rgb(255,255,255)" fill-opacity="1.0"><g fill="rgb(255,255,255)" fill-opacity="1.0"><text transform="matrix(0.2,0.0,0.0,0.2,19.272138595581055,-2.5653324127197266)" dominant-baseline="middle" text-anchor="middle" stroke="none">1</text></g></g></g><g><g><g><path d="M 19.158345187674986,-2.7298264492583755 l -7.878007122746161,-11.388051516749112 " /></g><g stroke-width="0.0"><g fill="rgb(0,0,0)" fill-opacity="1.0"><g fill="rgb(0,0,0)" fill-opacity="1.0"><path d="" /></g></g><g fill="rgb(0,0,0)" fill-opacity="1.0"><g fill="rgb(0,0,0)" fill-opacity="1.0"><path d="" /></g></g></g><g stroke-width="0.0"><g fill="rgb(0,0,0)" fill-opacity="1.0"><g fill="rgb(0,0,0)" fill-opacity="1.0"><path d="M 11.174985920418276,-14.270169736044362 l 0.22688553569414854,0.1729991862398545 l -0.12448072010261554,-2.496792689351201e-2 l -2.0536931767488532e-2,0.12528799417423442 Z" /></g></g><g fill="rgb(0,0,0)" fill-opacity="1.0"><g fill="rgb(0,0,0)" fill-opacity="1.0"><path d="M 11.27739073600981,-14.12213847669802 l 7.059308345302254e-3,1.4159324796560475e-3 l -8.223958852574568e-3,5.6891564217518235e-3 l 1.1646505072723146e-3,-7.105088901407871e-3 Z" /></g></g></g></g></g></g></g></g></g></svg>